<svg width="43" height="58" viewBox="0 0 43 58" fill="none" xmlns="http://www.w3.org/2000/svg">
<path d="M1.21662 22.0397C1.62438 21.5347 2.01669 21.0142 2.44419 20.5283C3.82743 18.9604 5.21754 17.3995 6.61451 15.8455C9.35209 12.7871 12.1025 9.74244 14.8238 6.66858C15.5346 5.86456 16.3484 5.38598 17.382 5.27659C20.8106 4.91195 24.192 5.01496 27.4498 6.38599C27.6549 6.46815 27.8556 6.56249 28.0507 6.66858C28.5366 6.94205 28.9873 6.8828 29.4431 6.57286C31.9452 4.87124 34.4504 3.17356 36.9588 1.47983C37.2326 1.29751 37.6198 0.947464 37.8172 1.22823C38.0147 1.509 37.5228 1.70317 37.3133 1.90463C35.3303 3.81714 33.3416 5.72326 31.3471 7.62301C28.6533 10.2022 25.9573 12.7783 23.2589 15.3514C23.0786 15.5219 22.8614 15.9303 22.6022 15.6915C22.3429 15.4526 22.6957 15.1791 22.8331 14.9622C23.1705 14.4344 23.5422 13.9312 23.9061 13.4225C24.2942 12.8756 24.2298 12.552 23.6091 12.3396C18.6233 10.6267 12.585 12.3715 11.148 19.2594C10.4518 22.5949 10.5865 25.9076 11.4158 29.1957C11.6004 29.925 11.7781 30.0015 12.3515 29.5448C13.3138 28.7782 14.2555 27.9833 15.2118 27.2075C15.4694 27.0006 15.799 26.6369 16.0574 26.9176C16.242 27.1173 15.8385 27.4163 15.6548 27.625C12.6268 31.0617 9.59617 34.4923 6.563 37.9168C4.8547 39.8506 3.15126 41.7889 1.45269 43.7318C1.36084 43.8367 1.27413 44.0372 1.10931 43.906C0.975394 43.8002 1.02347 43.6006 1.1033 43.4766C1.37543 43.0436 1.66129 42.6188 1.95488 42.2004C3.28718 40.3091 4.62178 38.4191 5.95866 36.5303C6.49605 35.7673 6.49347 35.657 6.04021 34.8202C4.42548 31.8466 3.58249 28.6424 3.4005 25.2139C3.34041 24.068 3.42196 22.9349 3.4211 21.7963C3.4211 21.5229 3.55072 21.1582 3.2434 21.0069C2.97385 20.8747 2.79186 21.1892 2.58669 21.3287C2.16777 21.6213 1.79607 21.9969 1.21662 22.0397Z" fill="#FEFEFE"/>
<path d="M31.7303 22.4205C32.569 22.4205 33.4086 22.4114 34.2473 22.4205C34.9795 22.4314 35.2774 22.7432 35.2877 23.5217C35.3015 24.5481 35.2877 25.5746 35.2877 26.601C35.2877 26.7906 35.25 27.0094 35.4431 27.1243C35.6569 27.251 35.8191 27.1024 35.9822 26.9711C36.4629 26.5864 36.9428 26.2017 37.4321 25.8316C37.5763 25.7223 37.7755 25.5955 37.9146 25.8143C38.0408 26.0085 37.8571 26.1325 37.7429 26.2455C35.0877 28.869 32.3759 31.4279 29.6623 33.983C27.439 36.0797 25.2302 38.1864 23.0154 40.2894C22.4583 40.8181 21.908 41.355 21.3423 41.8737C20.5903 42.5638 19.7044 42.7489 18.7343 42.634C16.5659 42.376 14.4524 41.922 12.4806 40.8664C11.8539 40.531 11.2247 40.6176 10.6092 41.0205C8.90259 42.139 7.1754 43.2284 5.45851 44.3286C5.38039 44.3788 5.30485 44.4335 5.22415 44.479C5.04045 44.583 4.80781 44.686 4.67561 44.4845C4.53396 44.2685 4.79665 44.1536 4.91769 44.0424C6.87151 42.2393 8.82933 40.4413 10.7912 38.6485C12.8194 36.7895 14.8487 34.932 16.8793 33.076C17.0595 32.9119 17.2432 32.7533 17.4287 32.5956C17.53 32.5099 17.6458 32.4188 17.7634 32.5573C17.8811 32.6959 17.7815 32.8089 17.6999 32.9138C17.3291 33.3923 16.9531 33.8664 16.5839 34.3486C16.0732 35.0232 16.1393 35.283 16.9093 35.5337C19.6374 36.4316 22.3072 36.2046 24.9109 35.0068C25.5705 34.7211 26.2125 34.3914 26.8329 34.0195C27.5669 33.5573 27.9927 32.9028 28.0287 32.0013C28.0605 31.2282 28.0528 30.4516 28.0365 29.6785C28.027 29.2282 27.8433 28.8855 27.3651 28.8472C25.5873 28.7041 23.8275 28.7451 22.1707 29.56C21.6762 29.8034 21.2213 30.1362 20.7328 30.3941C20.5362 30.4981 20.2495 30.7013 20.0881 30.4552C19.9267 30.2091 20.1834 29.9693 20.3456 29.8171C21.0908 29.107 21.8582 28.4224 22.6205 27.7323C24.2713 26.2382 25.9333 24.7587 27.5703 23.2473C28.179 22.6858 28.8245 22.3585 29.6512 22.4168C30.3422 22.4579 31.0376 22.4196 31.7303 22.4205Z" fill="#FEFEFE"/>
<path d="M41.1951 0.35043C40.4594 1.27842 39.7889 2.16449 39.0798 3.01408C35.719 7.03691 32.2174 10.9294 29.0009 15.0908C28.4592 15.7918 27.8068 16.3943 27.2119 17.0498C27.0659 17.2111 26.8238 17.3852 26.9483 17.6305C27.09 17.9112 27.3775 17.7818 27.5913 17.7143C28.9245 17.2977 30.2997 17.1008 31.662 16.8438C31.8998 16.7991 32.1943 16.6368 32.3488 16.9732C32.5033 17.3096 32.232 17.5074 32.0415 17.7079C30.3975 19.44 28.6369 21.0334 26.8599 22.6104C23.9938 25.155 21.1475 27.7241 18.321 30.3179C15.0434 33.3334 11.7859 36.3721 8.54843 39.4338C6.7457 41.1284 4.92322 42.792 3.05868 44.4065C2.96256 44.4955 2.86167 44.5786 2.75651 44.6553C2.52387 44.8112 2.25518 45.2105 2.02855 44.9425C1.84913 44.731 2.1762 44.3891 2.37192 44.1704C4.23646 42.1011 6.12848 40.0582 7.97327 37.9716C11.8014 33.6391 15.6163 29.2939 19.418 24.9359C19.576 24.7536 19.8207 24.5804 19.6756 24.2978C19.5193 23.9951 19.2386 24.1 18.9888 24.162C17.7467 24.471 16.5053 24.7809 15.2615 25.0827C15.0228 25.141 14.7344 25.2905 14.5747 24.9751C14.415 24.6597 14.6794 24.4719 14.8614 24.3014C16.8009 22.4783 18.7436 20.6633 20.6894 18.8565C23.4064 16.3351 26.1354 13.8291 28.8446 11.3031C31.8286 8.52401 34.8071 5.73456 37.7802 2.93478C38.709 2.0633 39.6001 1.14442 40.6774 0.473494C40.7976 0.400568 40.9049 0.277503 41.1951 0.35043Z" fill="#EBA13E"/>
<path d="M35.3016 33.1307C35.3016 33.963 35.2759 34.7971 35.3076 35.6284C35.3488 36.7005 34.9213 37.4771 34.1058 38.0779C31.7022 39.8582 29.1011 41.1964 26.2407 41.8837C24.4912 42.304 23.0319 43.2064 21.7219 44.4608C21.2351 44.9266 20.7003 45.335 20.1827 45.7644C20.0316 45.8893 19.8591 46.1026 19.6736 45.851C19.5122 45.6322 19.7363 45.5018 19.8548 45.3751C21.6335 43.4851 23.4144 41.5972 25.1977 39.7114C28.0592 36.6728 30.919 33.6305 33.777 30.5846C33.9693 30.3795 34.1479 30.1589 34.3273 29.9401C34.5067 29.7214 34.6947 29.4661 35.014 29.5956C35.3334 29.725 35.3008 30.0514 35.3008 30.3422C35.3019 31.2714 35.3022 32.2009 35.3016 33.1307Z" fill="#FEFEFE"/>
<path d="M6.42277 53.4564C6.91466 53.4564 7.4074 53.4564 7.89929 53.4564C8.00402 53.4564 8.13622 53.4619 8.14309 53.6187C8.14824 53.7335 8.0478 53.7846 7.95938 53.801C7.47351 53.8994 7.3456 54.2887 7.27263 54.7299C7.1576 55.4136 6.96273 56.0845 6.94728 56.7864C6.95474 56.9032 6.92139 57.0189 6.8536 57.1112C6.78582 57.2035 6.68836 57.2661 6.57986 57.2869C5.4802 57.595 4.37281 57.8147 3.23193 57.5658C1.15793 57.11 0.352712 55.4273 0.521826 53.4418C0.775067 50.4701 2.81387 48.5694 5.61669 48.5566C6.29314 48.5566 6.96187 48.5813 7.62459 48.7508C7.95509 48.8356 8.08386 49.0042 8.01604 49.367C7.93449 49.8028 7.88212 50.2449 7.81516 50.6834C7.798 50.7991 7.77396 50.9377 7.64348 50.9413C7.51299 50.945 7.4881 50.8019 7.47179 50.6879C7.3516 49.8821 7.11553 49.1583 6.23649 48.9887C5.26559 48.8019 4.40457 49.0917 3.75902 49.8711C2.31168 51.6214 2.01466 53.6497 2.6542 55.8375C2.88512 56.6251 3.40276 57.1593 4.22429 57.2577C4.78142 57.3243 5.15742 57.09 5.29306 56.5111C5.44672 55.8557 5.55059 55.1857 5.64759 54.5184C5.72314 54.0216 5.40208 53.8903 5.02608 53.8274C4.88959 53.8037 4.6724 53.832 4.67326 53.6451C4.67326 53.3935 4.91105 53.4628 5.05784 53.4628C5.51282 53.4509 5.96865 53.4582 6.42363 53.4582L6.42277 53.4564Z" fill="#FEFEFE"/>
<path d="M19.8852 55.9659C19.3788 56.6168 18.9058 57.151 18.2636 57.4636C17.5486 57.8164 16.9571 57.5475 16.8257 56.7344C16.5468 54.9905 17.1485 52.5602 19.244 51.8118C19.6114 51.6796 19.9754 51.5648 20.3651 51.5967C20.6827 51.6231 20.8338 51.4617 20.8879 51.1473C20.9892 50.5565 21.0896 49.9622 21.2064 49.3788C21.2665 49.077 21.1995 48.8883 20.8939 48.8318C20.7712 48.8081 20.5969 48.7853 20.5943 48.6331C20.59 48.4307 20.7943 48.438 20.9257 48.4061C21.3695 48.2976 21.8202 48.2192 22.2614 48.1016C22.8735 47.9385 22.961 48.0105 22.8306 48.6595C22.4872 50.3633 22.1318 52.0652 21.7918 53.7644C21.6442 54.5028 21.5171 55.2457 21.3918 55.9887C21.3678 56.1263 21.2605 56.3077 21.4382 56.4071C21.5738 56.4828 21.6648 56.3314 21.7704 56.264C21.8983 56.1829 22.0279 55.9449 22.1747 56.1318C22.3009 56.2904 22.1112 56.4499 22.0099 56.5721C21.6429 57.0347 21.1616 57.3791 20.6201 57.5666C20.0999 57.7371 19.8561 57.5511 19.8415 56.9696C19.8346 56.676 19.8698 56.388 19.8852 55.9659ZM19.8535 52.088C19.4105 52.088 19.0877 52.3879 18.8148 53.0552C18.4714 53.8966 18.3306 54.7872 18.2611 55.6988C18.237 55.9996 18.2319 56.3761 18.5358 56.5192C18.8225 56.6505 19.0345 56.3633 19.2268 56.1655C19.378 55.9988 19.5213 55.8242 19.656 55.6423C20.2793 54.8629 20.3368 53.8765 20.5248 52.9385C20.6424 52.3314 20.4424 52.0844 19.8535 52.088Z" fill="#FEFEFE"/>
<path d="M5.24609 14.6258C5.26775 14.3499 5.34598 14.0823 5.4753 13.8419C6.92435 11.0488 8.90908 8.82815 11.5402 7.24563C13.5292 6.04781 15.2341 4.42792 17.0291 2.93383C17.6025 2.45616 18.1854 1.99125 18.77 1.52908C18.9185 1.41149 19.0859 1.16445 19.2851 1.38596C19.4954 1.62389 19.2293 1.76792 19.0988 1.89645C17.5914 3.38416 16.0882 4.87734 14.5602 6.34225C12.3025 8.50636 10.0251 10.6477 7.75619 12.7999C7.05055 13.4699 6.34834 14.1454 5.64355 14.8173C5.56372 14.8938 5.47873 15.016 5.36885 14.9668C5.22892 14.9075 5.25382 14.7425 5.24609 14.6258Z" fill="#FEFEFE"/>
<path d="M26.12 57.375H22.4141C22.4862 57.2583 22.5085 57.1808 22.5411 57.1763C23.385 57.0495 23.4854 56.3558 23.609 55.6521C23.9335 53.7888 24.2777 51.9301 24.6203 50.0704C24.7061 49.5855 24.6203 49.2272 24.1121 49.0987C23.9859 49.0668 23.7687 49.0732 23.8193 48.8489C23.8605 48.6666 24.0554 48.6985 24.1953 48.6985C25.4344 48.6942 26.6731 48.6942 27.9115 48.6985C28.3305 48.6985 28.7494 48.6985 29.1692 48.6985C29.4971 48.6985 29.6353 48.8489 29.5615 49.2081C29.4756 49.6238 29.4155 50.0449 29.3357 50.4615C29.3142 50.5709 29.2756 50.704 29.1331 50.6839C29.0327 50.6693 29.0018 50.5609 28.9786 50.467C28.8859 50.0841 28.9614 49.6128 28.5743 49.3731C28.1871 49.1333 27.727 49.1853 27.2909 49.1853C26.3878 49.1853 26.3861 49.1853 26.2092 50.1598C26.0822 50.8626 25.9577 51.5654 25.8264 52.2674C25.7766 52.5408 25.8144 52.7396 26.1251 52.7432C26.5612 52.7487 26.9973 52.7751 27.4334 52.7004C27.8566 52.6283 28.1073 52.354 28.2764 51.9602C28.3262 51.8426 28.376 51.6703 28.5339 51.7049C28.7116 51.745 28.6524 51.9255 28.6301 52.0468C28.5056 52.7095 28.3725 53.3713 28.2352 54.0322C28.2086 54.158 28.1802 54.3376 28.018 54.3166C27.8557 54.2956 27.8566 54.1206 27.854 53.9893C27.8403 53.4059 27.5192 53.2519 27.0256 53.2391C25.6521 53.2017 25.6478 53.189 25.3894 54.6357C25.3036 55.1297 25.2177 55.6238 25.1405 56.1197C25.0606 56.6484 25.1594 57.0523 25.7706 57.0805C25.889 57.0878 26.0204 57.1234 26.12 57.375Z" fill="#FEFEFE"/>
<path d="M30.3734 16.0405C30.0944 16.0469 29.9304 16.0141 29.854 15.8281C29.7553 15.5875 29.9064 15.427 30.0403 15.2657C31.1279 13.9621 32.2104 12.654 33.3024 11.355C34.7096 9.67948 36.1206 8.00824 37.5354 6.34125C37.5714 6.29841 37.5997 6.2501 37.6384 6.20634C37.7508 6.08783 37.8607 5.89093 38.041 6.05958C38.2212 6.22822 38.0599 6.38045 37.968 6.51537C37.404 7.34856 36.8426 8.18266 36.2666 9.00673C35.6803 9.8463 35.0879 10.6813 34.4819 11.5054C33.984 12.1809 33.8938 12.8782 34.2243 13.6731C34.7583 14.9494 34.6536 15.1481 33.3805 15.4216C32.3469 15.6422 31.3082 15.8482 30.3734 16.0405Z" fill="#FEFEFE"/>
<path d="M40.0491 53.4761C40.4663 52.9401 40.7616 52.4242 41.1754 52.0176C41.3633 51.8353 41.5548 51.6466 41.8226 51.6128C42.1059 51.5764 42.3308 51.6858 42.4416 51.9775C42.5952 52.3786 42.4278 52.6931 42.16 52.9602C41.9419 53.178 41.7376 53.1325 41.5513 52.8964C41.4655 52.7924 41.3797 52.7049 41.2234 52.7505C40.8277 52.8663 40.1641 53.9638 40.2714 54.375C40.4131 54.9155 40.5659 55.4534 40.7436 55.9812C40.9367 56.5536 41.1187 56.581 41.5702 56.1735C41.6896 56.066 41.796 55.7569 41.9892 55.9693C42.1359 56.1307 41.9299 56.3239 41.8175 56.4634C41.5093 56.8444 41.2011 57.2319 40.7745 57.4744C40.2414 57.777 39.8611 57.6567 39.6241 57.066C39.4699 56.6523 39.3364 56.2302 39.2241 55.8016C39.1383 55.5062 39.0215 55.5126 38.8644 55.7414C38.5966 56.1316 38.3339 56.5272 38.0566 56.911C37.9396 57.0826 37.8006 57.236 37.6437 57.3668C37.3218 57.6175 36.9716 57.8144 36.6325 57.3932C36.387 57.0878 36.4659 56.5646 36.7861 56.2373C36.9793 56.0404 37.181 55.9584 37.4111 56.1717C37.5072 56.2629 37.6017 56.354 37.745 56.3376C38.0953 56.3048 38.994 55.0258 38.9039 54.6484C38.7923 54.1808 38.6524 53.7195 38.5099 53.2601C38.3785 52.838 38.1665 52.6657 37.8094 53.0495C37.7193 53.1407 37.6145 53.3585 37.4592 53.1935C37.3261 53.0513 37.4875 52.9082 37.5682 52.7924C37.8532 52.3877 38.1691 52.0112 38.5846 51.7523C39.0464 51.4652 39.3924 51.57 39.6018 52.0905C39.7709 52.5089 39.8851 52.9574 40.0491 53.4761Z" fill="#FEFEFE"/>
<path d="M29.313 56.6498C29.5405 55.4265 29.8006 54.0217 30.0624 52.6179C30.2467 51.6309 30.4324 50.6443 30.6196 49.658C30.6908 49.2815 30.7603 48.9123 30.271 48.7847C30.1903 48.7628 30.0899 48.7136 30.1114 48.5878C30.1328 48.462 30.2307 48.451 30.3174 48.4291C30.8479 48.2933 31.3767 48.1466 31.9115 48.0317C32.3777 47.9323 32.3184 48.2623 32.2609 48.5677C31.9793 50.0664 31.6969 51.565 31.4136 53.0636L30.8779 55.9105C30.8505 56.0591 30.7621 56.2378 30.8891 56.3499C31.0608 56.4994 31.181 56.3007 31.3183 56.2177C31.4222 56.1539 31.5295 55.9844 31.6445 56.1102C31.7896 56.2688 31.6102 56.3891 31.5209 56.4939C31.1518 56.9279 30.7483 57.3253 30.2238 57.5322C29.6358 57.762 29.2976 57.4994 29.313 56.6498Z" fill="#FEFEFE"/>
<path d="M35.4611 51.5859C35.9839 51.5859 36.3616 51.7044 36.5341 52.1657C36.7067 52.627 36.6466 53.0855 36.317 53.4629C35.8268 54.0235 35.1684 54.2669 34.5099 54.5021C33.8515 54.7373 33.7133 55.0563 33.9245 55.8804C34.0781 56.4802 34.4395 56.7008 35.0533 56.5687C35.4225 56.4884 35.7195 56.2669 35.9976 56.0099C36.0766 55.936 36.1642 55.8221 36.2766 55.9187C36.3891 56.0153 36.3152 56.1375 36.2449 56.2223C35.5993 57.0026 34.8396 57.5896 33.8249 57.6407C33.1862 57.6762 32.66 57.2077 32.4694 56.5112C31.9449 54.5969 33.206 52.1958 35.0147 51.6798C35.1898 51.6251 35.3718 51.6033 35.4611 51.5859ZM35.3667 52.7509C35.3727 52.4993 35.2851 52.2952 35.0722 52.1785C34.8593 52.0618 34.6791 52.2022 34.5443 52.3553C34.14 52.8111 34.0292 53.3973 33.9691 53.9962C33.9477 54.1967 34.055 54.2013 34.2061 54.1785C34.8061 54.0655 35.3675 53.3827 35.3667 52.7509Z" fill="#FEFEFE"/>
<path d="M11.0118 52.8977C11.3672 52.5704 11.6256 52.1994 11.9561 51.8949C12.2136 51.6588 12.5003 51.4884 12.8497 51.6698C13.1072 51.8047 13.2085 52.0581 13.1785 52.3462C13.1628 52.5497 13.0971 52.7453 12.9881 52.9136C12.879 53.0818 12.7304 53.2168 12.557 53.3051C12.3673 53.4063 12.2033 53.2732 12.0642 53.1456C11.7604 52.8648 11.5492 52.9925 11.3526 53.2969C10.8847 54.0116 10.6761 54.8302 10.4838 55.657C10.4238 55.9196 10.3808 56.1867 10.3242 56.4501C10.1336 57.348 9.9104 57.5276 9.0305 57.5531C8.62703 57.565 8.74893 57.2879 8.78928 57.0837C8.97556 56.1384 9.17901 55.1976 9.37216 54.2578C9.43826 53.9369 9.50007 53.6196 9.54385 53.2915C9.56359 53.1465 9.61081 52.9624 9.44599 52.8758C9.31207 52.8047 9.21163 52.9323 9.10261 53.0016C8.99359 53.0709 8.89229 53.2258 8.78155 53.0581C8.69055 52.9223 8.81417 52.8065 8.90001 52.7099C9.23738 52.3288 9.58076 51.9578 10.0426 51.74C10.7182 51.4218 11.0015 51.6078 11.0058 52.3781C11.0126 52.5531 11.0118 52.7254 11.0118 52.8977Z" fill="#FEFEFE"/>
<path d="M15.9379 52.5135C15.8461 53.3093 15.5885 54.2373 15.3842 55.178C15.331 55.4233 15.2692 55.6657 15.2125 55.9073C15.1808 56.0559 15.1104 56.2318 15.2349 56.3458C15.3799 56.4789 15.4967 56.3148 15.6152 56.2373C15.7165 56.1726 15.8135 55.9939 15.9362 56.1179C16.0864 56.2701 15.9208 56.4014 15.8323 56.5071C15.507 56.9037 15.1456 57.2565 14.6837 57.4689C14.4185 57.591 14.1309 57.7369 13.8553 57.5181C13.5643 57.2875 13.5815 56.9429 13.6493 56.6156C13.821 55.7852 14.0116 54.9593 14.1936 54.1306C14.2631 53.8107 14.3318 53.4925 14.3944 53.1689C14.4193 53.0422 14.5112 52.8827 14.3944 52.7879C14.2442 52.6666 14.1369 52.8544 14.0159 52.9155C13.8948 52.9766 13.7746 53.2537 13.6218 53.044C13.4982 52.8708 13.7077 52.7341 13.8159 52.6201C14.1747 52.2341 14.5998 51.9246 15.0683 51.7085C15.695 51.4305 15.9748 51.642 15.9379 52.5135Z" fill="#FEFEFE"/>
<path d="M16.3544 49.5672C16.3484 50.1141 15.9956 50.5298 15.5818 50.4906C15.168 50.4514 14.974 50.1652 14.9766 49.7413C14.9766 49.2609 15.356 48.8361 15.7561 48.8625C16.1921 48.8917 16.3278 49.2125 16.3544 49.5672Z" fill="#FEFEFE"/>
</svg>
