<svg width="24" height="24" viewBox="0 0 24 24" fill="none" xmlns="http://www.w3.org/2000/svg">
<g clip-path="url(#clip0_244_56522)">
<path d="M10 7V2.5C10 2.22386 9.77615 2 9.5 2H2.5C2.22386 2 2 2.22386 2 2.5V21.5C2 21.7761 2.22386 22 2.5 22H9.5C9.77615 22 10 21.7761 10 21.5V17" stroke="#161CCA" stroke-width="1.4" stroke-linecap="round"/>
<path d="M14 17V21.5C14 21.7761 14.2239 22 14.5 22H21.5C21.7761 22 22 21.7761 22 21.5V2.5C22 2.22386 21.7761 2 21.5 2H14.5C14.2239 2 14 2.22386 14 2.5V7" stroke="#161CCA" stroke-width="1.4" stroke-linecap="round"/>
<path d="M14 12H22" stroke="#161CCA" stroke-width="1.4" stroke-linecap="round"/>
<path d="M2.5 12H10" stroke="#161CCA" stroke-width="1.4" stroke-linecap="round"/>
<path d="M16.3747 14.4097L15.5792 13.6142L13.9883 12.0232L15.5792 10.4322L16.3747 9.63672" stroke="#161CCA" stroke-width="1.4" stroke-linecap="round" stroke-linejoin="round"/>
<path d="M7.6875 14.4097L8.483 13.6142L10.074 12.0232L8.483 10.4322L7.6875 9.63672" stroke="#161CCA" stroke-width="1.4" stroke-linecap="round" stroke-linejoin="round"/>
</g>
<defs>
<clipPath id="clip0_244_56522">
<rect width="24" height="24" fill="white"/>
</clipPath>
</defs>
</svg>
