<svg width="21" height="22" viewBox="0 0 21 22" fill="none" xmlns="http://www.w3.org/2000/svg">
<g clip-path="url(#clip0_244_55536)">
<path fill-rule="evenodd" clip-rule="evenodd" d="M6.48248 1.37777C7.54783 1.33024 7.88842 1.31836 10.5974 1.31836C13.3063 1.31836 13.6469 1.33024 14.7162 1.37381C15.7815 1.42133 16.5063 1.59163 17.1399 1.83717C17.7934 2.09459 18.3518 2.43519 18.9063 2.98964C19.4607 3.5441 19.8053 4.09855 20.0587 4.75598C20.3043 5.3936 20.4746 6.11836 20.5221 7.17974C20.5696 8.24509 20.5815 8.58172 20.5815 11.2946C20.5815 14.0075 20.5696 14.3441 20.5221 15.4095C20.4746 16.4748 20.3043 17.1996 20.0587 17.8333C19.8013 18.4867 19.4607 19.0451 18.9063 19.5996C18.3518 20.1541 17.7974 20.4986 17.1399 20.7521C16.5023 20.9976 15.7776 21.1679 14.7162 21.2154C13.6508 21.263 13.3142 21.2748 10.6013 21.2748C7.88842 21.2748 7.55179 21.263 6.48644 21.2154C5.4211 21.1679 4.69635 20.9976 4.06268 20.7521C3.40922 20.4946 2.8508 20.1541 2.29635 19.5996C1.74189 19.0451 1.39734 18.4907 1.14387 17.8333C0.898322 17.1956 0.728025 16.4709 0.6805 15.4095C0.632975 14.3441 0.621094 14.0036 0.621094 11.2946C0.621094 8.58568 0.632975 8.24509 0.6805 7.1837C0.728025 6.11836 0.898322 5.3936 1.14387 4.75994C1.4013 4.10648 1.74189 3.54806 2.29635 2.9936C2.8508 2.43915 3.40526 2.09459 4.06268 1.84113C4.69635 1.59559 5.4211 1.42529 6.48248 1.37777ZM14.629 3.17578C13.5756 3.12826 13.2627 3.11638 10.5974 3.11638C7.93199 3.11638 7.61912 3.1243 6.56565 3.17578C5.59139 3.21935 5.06466 3.38568 4.71219 3.52034C4.24486 3.69855 3.91219 3.91638 3.56367 4.26489C3.21516 4.61341 3.0013 4.94608 2.81912 5.41341C2.6805 5.76588 2.51813 6.29261 2.47456 7.26687C2.42704 8.32034 2.41516 8.63321 2.41516 11.2986C2.41516 13.964 2.42704 14.2768 2.47456 15.3303C2.51813 16.3045 2.68446 16.8313 2.81912 17.1838C2.99734 17.6511 3.21516 17.9838 3.56367 18.3323C3.91219 18.6808 4.24486 18.8946 4.71219 19.0768C5.06466 19.2154 5.59139 19.3778 6.56565 19.4214C7.61912 19.4689 7.93199 19.4808 10.5974 19.4808C13.2627 19.4808 13.5756 19.4689 14.629 19.4214C15.6033 19.3778 16.13 19.2115 16.4825 19.0768C16.9498 18.8986 17.2825 18.6808 17.631 18.3323C17.9795 17.9838 18.1934 17.6511 18.3756 17.1838C18.5142 16.8313 18.6766 16.3045 18.7201 15.3303C18.7677 14.2768 18.7795 13.964 18.7795 11.2986C18.7795 8.63321 18.7677 8.32034 18.7201 7.26687C18.6766 6.29261 18.5102 5.76588 18.3756 5.41341C18.1974 4.94608 17.9795 4.61341 17.631 4.26489C17.2825 3.91638 16.9498 3.70251 16.4825 3.52034C16.13 3.38172 15.6033 3.21935 14.629 3.17578Z" fill="#F5F8F5"/>
<path fill-rule="evenodd" clip-rule="evenodd" d="M5.47266 11.2947C5.47266 8.46299 7.76969 6.16992 10.5974 6.16992C13.4252 6.16992 15.7222 8.46695 15.7222 11.2947C15.7222 14.1224 13.4252 16.4195 10.5974 16.4195C7.76969 16.4195 5.47266 14.1264 5.47266 11.2947ZM7.27068 11.2947C7.27068 13.1323 8.75979 14.6215 10.5974 14.6215C12.4351 14.6215 13.9242 13.1323 13.9242 11.2947C13.9242 9.45705 12.4351 7.96794 10.5974 7.96794C8.75979 7.96794 7.27068 9.45705 7.27068 11.2947Z" fill="#F5F8F5"/>
<path d="M15.9226 7.16356C16.5831 7.16356 17.1186 6.62807 17.1186 5.96752C17.1186 5.30696 16.5831 4.77148 15.9226 4.77148C15.262 4.77148 14.7266 5.30696 14.7266 5.96752C14.7266 6.62807 15.262 7.16356 15.9226 7.16356Z" fill="#F5F8F5"/>
</g>
<defs>
<clipPath id="clip0_244_55536">
<rect width="21" height="21" fill="white" transform="translate(0 0.5)"/>
</clipPath>
</defs>
</svg>
