<svg width="21" height="22" viewBox="0 0 21 22" fill="none" xmlns="http://www.w3.org/2000/svg">
<g clip-path="url(#clip0_244_55529)">
<path d="M11.2582 10.9554L15.984 17.7149H14.0445L10.1882 12.1991V12.1988L9.622 11.3891L5.11719 4.94531H7.05665L10.692 10.1457L11.2582 10.9554Z" fill="#FEFEFE"/>
<path d="M18.7856 0.814453H2.32378C1.07063 0.814453 0.0546875 1.83039 0.0546875 3.08355V19.5454C0.0546875 20.7985 1.07063 21.8145 2.32378 21.8145H18.7856C20.0387 21.8145 21.0547 20.7985 21.0547 19.5454V3.08355C21.0547 1.83039 20.0387 0.814453 18.7856 0.814453ZM13.4492 18.6229L9.54679 12.9435L4.661 18.6229H3.39826L8.98611 12.1278L3.39826 3.99526H7.66021L11.3555 9.37328L15.982 3.99526H17.2447L11.9164 10.1891H11.916L17.7111 18.6229H13.4492Z" fill="#FEFEFE"/>
</g>
<defs>
<clipPath id="clip0_244_55529">
<rect width="21" height="21" fill="white" transform="translate(0 0.5)"/>
</clipPath>
</defs>
</svg>
