<svg width="21" height="22" viewBox="0 0 21 22" fill="none" xmlns="http://www.w3.org/2000/svg">
<g clip-path="url(#clip0_244_55532)">
<path d="M10.5573 0.814453H10.5521C4.76263 0.814453 0.0546875 5.5237 0.0546875 11.3145C0.0546875 13.6113 0.794937 15.7402 2.05362 17.4688L0.745063 21.3695L4.781 20.0793C6.44131 21.1792 8.42188 21.8145 10.5573 21.8145C16.3468 21.8145 21.0547 17.1039 21.0547 11.3145C21.0547 5.52502 16.3468 0.814453 10.5573 0.814453ZM16.667 15.6418C16.4137 16.3571 15.4083 16.9503 14.6064 17.1236C14.0577 17.2404 13.3411 17.3336 10.9288 16.3335C7.84306 15.0551 5.85594 11.9195 5.70106 11.7161C5.55275 11.5126 4.45419 10.0558 4.45419 8.54902C4.45419 7.04227 5.21938 6.30858 5.52781 5.99358C5.78113 5.73502 6.19981 5.61689 6.60144 5.61689C6.73137 5.61689 6.84819 5.62345 6.95319 5.6287C7.26163 5.64183 7.4165 5.6602 7.61994 6.14714C7.87325 6.75745 8.49012 8.2642 8.56362 8.41908C8.63844 8.57395 8.71325 8.78395 8.60825 8.98739C8.50981 9.19739 8.42319 9.29058 8.26831 9.46908C8.11344 9.64758 7.96644 9.78408 7.81156 9.9757C7.66981 10.1424 7.50969 10.3209 7.68819 10.6293C7.86669 10.9312 8.48356 11.9379 9.39181 12.7464C10.5639 13.7898 11.5141 14.1232 11.8541 14.265C12.1074 14.37 12.4093 14.345 12.5943 14.1481C12.8293 13.8948 13.1193 13.4748 13.4146 13.0614C13.6246 12.7648 13.8898 12.728 14.168 12.833C14.4515 12.9315 15.9517 13.673 16.2601 13.8266C16.5686 13.9815 16.772 14.055 16.8468 14.1849C16.9203 14.3148 16.9203 14.9251 16.667 15.6418Z" fill="#FEFEFE"/>
</g>
<defs>
<clipPath id="clip0_244_55532">
<rect width="21" height="21" fill="white" transform="translate(0 0.5)"/>
</clipPath>
</defs>
</svg>
